<svg width="70" height="41" viewBox="0 0 70 41" fill="none" xmlns="http://www.w3.org/2000/svg">
<path d="M0 33L5.5 41V33H0Z" fill="#AE1616"/>
<path d="M58 0H0V33H5.5H58L70 16.5L58 0Z" fill="#D93636"/>
<path d="M7.29531 18.4812V16.4012H12.7953V18.4812H7.29531ZM18.78 23.2012C17.7933 23.2012 16.8267 23.0612 15.88 22.7812C14.9467 22.4879 14.16 22.0879 13.52 21.5812L14.64 19.5612C15.1467 19.9746 15.76 20.3079 16.48 20.5612C17.2 20.8146 17.9533 20.9412 18.74 20.9412C19.6733 20.9412 20.4 20.7546 20.92 20.3812C21.44 19.9946 21.7 19.4746 21.7 18.8212C21.7 18.1812 21.46 17.6746 20.98 17.3012C20.5 16.9279 19.7267 16.7412 18.66 16.7412H17.38V14.9612L21.38 10.2012L21.72 11.1812H14.2V9.00122H23.74V10.7412L19.74 15.5012L18.38 14.7012H19.16C20.88 14.7012 22.1667 15.0879 23.02 15.8612C23.8867 16.6212 24.32 17.6012 24.32 18.8012C24.32 19.5879 24.12 20.3146 23.72 20.9812C23.32 21.6479 22.7067 22.1879 21.88 22.6012C21.0667 23.0012 20.0333 23.2012 18.78 23.2012ZM31.8606 23.2012C30.754 23.2012 29.754 22.9212 28.8606 22.3612C27.9806 21.8012 27.2873 20.9879 26.7806 19.9212C26.274 18.8412 26.0206 17.5346 26.0206 16.0012C26.0206 14.4679 26.274 13.1679 26.7806 12.1012C27.2873 11.0212 27.9806 10.2012 28.8606 9.64122C29.754 9.08122 30.754 8.80122 31.8606 8.80122C32.9806 8.80122 33.9806 9.08122 34.8606 9.64122C35.7406 10.2012 36.434 11.0212 36.9406 12.1012C37.4606 13.1679 37.7206 14.4679 37.7206 16.0012C37.7206 17.5346 37.4606 18.8412 36.9406 19.9212C36.434 20.9879 35.7406 21.8012 34.8606 22.3612C33.9806 22.9212 32.9806 23.2012 31.8606 23.2012ZM31.8606 20.9412C32.514 20.9412 33.0806 20.7679 33.5606 20.4212C34.0406 20.0612 34.414 19.5146 34.6806 18.7812C34.9606 18.0479 35.1006 17.1212 35.1006 16.0012C35.1006 14.8679 34.9606 13.9412 34.6806 13.2212C34.414 12.4879 34.0406 11.9479 33.5606 11.6012C33.0806 11.2412 32.514 11.0612 31.8606 11.0612C31.234 11.0612 30.674 11.2412 30.1806 11.6012C29.7006 11.9479 29.3206 12.4879 29.0406 13.2212C28.774 13.9412 28.6406 14.8679 28.6406 16.0012C28.6406 17.1212 28.774 18.0479 29.0406 18.7812C29.3206 19.5146 29.7006 20.0612 30.1806 20.4212C30.674 20.7679 31.234 20.9412 31.8606 20.9412ZM41.4377 23.0012L50.9977 9.00122H52.9577L43.3977 23.0012H41.4377ZM42.5977 16.5412C41.9443 16.5412 41.3643 16.3812 40.8577 16.0612C40.351 15.7412 39.9577 15.2946 39.6777 14.7212C39.3977 14.1479 39.2577 13.4746 39.2577 12.7012C39.2577 11.9279 39.3977 11.2546 39.6777 10.6812C39.9577 10.1079 40.351 9.66122 40.8577 9.34122C41.3643 9.02122 41.9443 8.86122 42.5977 8.86122C43.2777 8.86122 43.8643 9.02122 44.3577 9.34122C44.8643 9.66122 45.2577 10.1079 45.5377 10.6812C45.8177 11.2546 45.9577 11.9279 45.9577 12.7012C45.9577 13.4746 45.8177 14.1479 45.5377 14.7212C45.2577 15.2946 44.8643 15.7412 44.3577 16.0612C43.8643 16.3812 43.2777 16.5412 42.5977 16.5412ZM42.6177 15.1412C43.151 15.1412 43.5643 14.9346 43.8577 14.5212C44.1643 14.0946 44.3177 13.4879 44.3177 12.7012C44.3177 11.9146 44.1643 11.3146 43.8577 10.9012C43.5643 10.4746 43.151 10.2612 42.6177 10.2612C42.0843 10.2612 41.6577 10.4746 41.3377 10.9012C41.031 11.3279 40.8777 11.9279 40.8777 12.7012C40.8777 13.4746 41.031 14.0746 41.3377 14.5012C41.6577 14.9279 42.0843 15.1412 42.6177 15.1412ZM51.7777 23.1412C51.1243 23.1412 50.5443 22.9812 50.0377 22.6612C49.531 22.3412 49.1377 21.8946 48.8577 21.3212C48.5777 20.7479 48.4377 20.0746 48.4377 19.3012C48.4377 18.5279 48.5777 17.8546 48.8577 17.2812C49.1377 16.7079 49.531 16.2612 50.0377 15.9412C50.5443 15.6212 51.1243 15.4612 51.7777 15.4612C52.4577 15.4612 53.0443 15.6212 53.5377 15.9412C54.0443 16.2612 54.4377 16.7079 54.7177 17.2812C54.9977 17.8546 55.1377 18.5279 55.1377 19.3012C55.1377 20.0746 54.9977 20.7479 54.7177 21.3212C54.4377 21.8946 54.0443 22.3412 53.5377 22.6612C53.0443 22.9812 52.4577 23.1412 51.7777 23.1412ZM51.7777 21.7412C52.311 21.7412 52.731 21.5279 53.0377 21.1012C53.3443 20.6746 53.4977 20.0746 53.4977 19.3012C53.4977 18.5279 53.3443 17.9279 53.0377 17.5012C52.731 17.0746 52.311 16.8612 51.7777 16.8612C51.2577 16.8612 50.8377 17.0746 50.5177 17.5012C50.211 17.9146 50.0577 18.5146 50.0577 19.3012C50.0577 20.0879 50.211 20.6946 50.5177 21.1212C50.8377 21.5346 51.2577 21.7412 51.7777 21.7412Z" fill="url(#paint0_linear_192_124)"/>
<defs>
<linearGradient id="paint0_linear_192_124" x1="-2.61423" y1="15.5158" x2="59.3711" y2="16.0576" gradientUnits="userSpaceOnUse">
<stop stop-color="#EDC22B"/>
<stop offset="0.534375" stop-color="#F6F98C"/>
<stop offset="1" stop-color="#EDC22B"/>
</linearGradient>
</defs>
</svg>
